<svg width="65" height="65" viewBox="0 0 65 65" fill="none" xmlns="http://www.w3.org/2000/svg">
<path d="M0 49.5V45.9115C0 44.151 0.947917 42.7292 2.84375 41.6458C4.73958 40.5625 7.17708 40.0208 10.1562 40.0208C10.7431 40.0208 11.2847 40.0321 11.7812 40.0547C12.2778 40.0773 12.7743 40.1337 13.2708 40.224C12.9097 40.9913 12.6389 41.77 12.4583 42.5599C12.2778 43.3498 12.1875 44.1962 12.1875 45.099V49.5H0ZM16.25 49.5V45.099C16.25 42.1649 17.7509 39.7951 20.7526 37.9896C23.7543 36.184 27.6701 35.2812 32.5 35.2812C37.375 35.2812 41.3021 36.184 44.2812 37.9896C47.2604 39.7951 48.75 42.1649 48.75 45.099V49.5H16.25ZM52.8125 49.5V45.099C52.8125 44.1962 52.7335 43.3498 52.5755 42.5599C52.4175 41.77 52.158 40.9913 51.7969 40.224C52.2934 40.1337 52.7899 40.0773 53.2865 40.0547C53.783 40.0321 54.3021 40.0208 54.8438 40.0208C57.9132 40.0208 60.3733 40.5625 62.224 41.6458C64.0747 42.7292 65 44.151 65 45.9115V49.5H52.8125ZM32.5 39.3438C28.8889 39.3438 25.9549 39.8854 23.6979 40.9688C21.441 42.0521 20.3125 43.4288 20.3125 45.099V45.4375H44.6875V45.0312C44.6875 43.4062 43.5703 42.0521 41.3359 40.9688C39.1016 39.8854 36.1562 39.3438 32.5 39.3438ZM10.1562 37.9896C8.84722 37.9896 7.73003 37.5269 6.80469 36.6016C5.87934 35.6762 5.41667 34.559 5.41667 33.25C5.41667 31.941 5.87934 30.8238 6.80469 29.8984C7.73003 28.9731 8.84722 28.5104 10.1562 28.5104C11.4653 28.5104 12.5825 28.9731 13.5078 29.8984C14.4332 30.8238 14.8958 31.941 14.8958 33.25C14.8958 34.559 14.4332 35.6762 13.5078 36.6016C12.5825 37.5269 11.4653 37.9896 10.1562 37.9896ZM54.8438 37.9896C53.5347 37.9896 52.4175 37.5269 51.4922 36.6016C50.5668 35.6762 50.1042 34.559 50.1042 33.25C50.1042 31.941 50.5668 30.8238 51.4922 29.8984C52.4175 28.9731 53.5347 28.5104 54.8438 28.5104C56.1528 28.5104 57.27 28.9731 58.1953 29.8984C59.1207 30.8238 59.5833 31.941 59.5833 33.25C59.5833 34.559 59.1207 35.6762 58.1953 36.6016C57.27 37.5269 56.1528 37.9896 54.8438 37.9896ZM32.5 33.25C30.2431 33.25 28.3247 32.4601 26.7448 30.8802C25.1649 29.3003 24.375 27.3819 24.375 25.125C24.375 22.8229 25.1649 20.8932 26.7448 19.3359C28.3247 17.7786 30.2431 17 32.5 17C34.8021 17 36.7318 17.7786 38.2891 19.3359C39.8464 20.8932 40.625 22.8229 40.625 25.125C40.625 27.3819 39.8464 29.3003 38.2891 30.8802C36.7318 32.4601 34.8021 33.25 32.5 33.25ZM32.5 21.0625C31.3715 21.0625 30.4123 21.4462 29.6224 22.2135C28.8325 22.9809 28.4375 23.9514 28.4375 25.125C28.4375 26.2535 28.8325 27.2127 29.6224 28.0026C30.4123 28.7925 31.3715 29.1875 32.5 29.1875C33.6736 29.1875 34.6441 28.7925 35.4115 28.0026C36.1788 27.2127 36.5625 26.2535 36.5625 25.125C36.5625 23.9514 36.1788 22.9809 35.4115 22.2135C34.6441 21.4462 33.6736 21.0625 32.5 21.0625Z" fill="#BFBC37"/>
</svg>
