<svg width="65" height="65" viewBox="0 0 65 65" fill="none" xmlns="http://www.w3.org/2000/svg">
<path d="M32.1615 55.5208C32.3872 55.5208 32.6467 55.4644 32.9401 55.3516C33.2336 55.2387 33.4705 55.092 33.6511 54.9115L56.4688 32.026C57.0556 31.4392 57.4957 30.7734 57.7891 30.0286C58.0825 29.2839 58.2292 28.5278 58.2292 27.7604C58.2292 26.9931 58.0825 26.2257 57.7891 25.4583C57.4957 24.691 57.0556 24.0139 56.4688 23.4271L44.2813 11.2396C43.6945 10.6528 43.0174 10.2127 42.25 9.91927C41.4827 9.62587 40.7153 9.47917 39.948 9.47917C39.1806 9.47917 38.4245 9.62587 37.6797 9.91927C36.9349 10.2127 36.2691 10.6528 35.6823 11.2396L34.4636 12.4583L39.948 18.0104C40.5348 18.6424 41.0539 19.3759 41.5052 20.2109C41.9566 21.046 42.1823 21.9601 42.1823 22.9531C42.1823 24.6684 41.5165 26.1806 40.1849 27.4896C38.8533 28.7986 37.3299 29.4531 35.6146 29.4531C34.4862 29.4531 33.5495 29.2839 32.8047 28.9453C32.0599 28.6068 31.3716 28.1215 30.7396 27.4896L25.7969 22.5469L13.5417 34.8021C13.316 35.0278 13.158 35.2648 13.0677 35.513C12.9775 35.7613 12.9323 36.0208 12.9323 36.2917C12.9323 36.8785 13.1242 37.3637 13.5079 37.7474C13.8915 38.1311 14.3768 38.3229 14.9636 38.3229C15.2344 38.3229 15.494 38.2552 15.7422 38.1198C15.9905 37.9844 16.2049 37.8264 16.3855 37.6458L25.7292 28.3021L28.573 31.1458L19.2969 40.4219C19.0712 40.6476 18.9132 40.8958 18.823 41.1667C18.7327 41.4375 18.6875 41.7083 18.6875 41.9792C18.6875 42.5208 18.8907 42.9948 19.2969 43.401C19.7032 43.8073 20.1771 44.0104 20.7188 44.0104C20.9896 44.0104 21.2492 43.954 21.4974 43.8411C21.7457 43.7283 21.9601 43.5816 22.1407 43.401L31.4844 34.0573L34.3282 36.901L25.0521 46.1771C24.8716 46.3576 24.7249 46.5946 24.612 46.888C24.4992 47.1814 24.4427 47.4635 24.4427 47.7344C24.4427 48.276 24.6459 48.75 25.0521 49.1563C25.4584 49.5625 25.9323 49.7656 26.474 49.7656C26.7448 49.7656 26.9931 49.7205 27.2188 49.6302C27.4445 49.5399 27.6702 49.3819 27.8959 49.1563L37.2396 39.8125L40.0834 42.6563L30.7396 52C30.5139 52.2257 30.3559 52.474 30.2657 52.7448C30.1754 53.0156 30.1303 53.2639 30.1303 53.4896C30.1303 54.1215 30.3108 54.6181 30.6719 54.9792C31.033 55.3403 31.5296 55.5208 32.1615 55.5208ZM32.1615 59.5833C30.6719 59.5833 29.3403 59.0304 28.1667 57.9245C26.9931 56.8186 26.2934 55.4531 26.0678 53.8281C24.533 53.6024 23.2466 52.9705 22.2084 51.9323C21.1702 50.8941 20.5382 49.6076 20.3125 48.0729C18.7778 47.8472 17.5026 47.204 16.487 46.1432C15.4714 45.0825 14.8507 43.8073 14.625 42.3177C12.9549 42.092 11.5782 41.4149 10.4948 40.2865C9.4115 39.158 8.86983 37.8038 8.86983 36.224C8.86983 35.4566 9.01653 34.6892 9.30994 33.9219C9.60334 33.1545 10.0434 32.4774 10.6302 31.8906L25.7969 16.724L33.2448 24.1719C33.6059 24.533 34.0009 24.8151 34.4297 25.0182C34.8585 25.2214 35.2761 25.3229 35.6823 25.3229C36.2691 25.3229 36.8221 25.0634 37.3412 24.5443C37.8603 24.0252 38.1198 23.4722 38.1198 22.8854C38.1198 22.6146 38.0408 22.3099 37.8829 21.9714C37.7249 21.6328 37.4653 21.283 37.1042 20.9219L27.4219 11.2396C26.8351 10.6528 26.158 10.2127 25.3907 9.91927C24.6233 9.62587 23.8559 9.47917 23.0886 9.47917C22.3212 9.47917 21.5651 9.62587 20.8204 9.91927C20.0756 10.2127 19.4098 10.6528 18.823 11.2396L8.53129 21.5312C7.89935 22.1632 7.45924 22.829 7.21098 23.5286C6.96271 24.2283 6.81601 25.0069 6.77087 25.8646C6.72574 26.7674 6.89501 27.6363 7.27869 28.4714C7.66237 29.3064 8.12504 30.0625 8.66671 30.7396L5.75525 33.651C4.85247 32.658 4.11896 31.4618 3.55473 30.0625C2.99049 28.6632 2.70837 27.2413 2.70837 25.7969C2.70837 24.4427 2.96792 23.145 3.48702 21.9036C4.00612 20.6623 4.73962 19.5677 5.68754 18.6198L15.9115 8.39583C16.9046 7.40278 18.033 6.66927 19.2969 6.19531C20.5608 5.72135 21.8473 5.48438 23.1563 5.48438C24.4653 5.48438 25.7405 5.72135 26.9818 6.19531C28.2231 6.66927 29.3403 7.40278 30.3334 8.39583L31.5521 9.61458L32.7709 8.39583C33.7639 7.40278 34.8924 6.66927 36.1563 6.19531C37.4202 5.72135 38.7066 5.48438 40.0157 5.48438C41.3247 5.48438 42.5999 5.72135 43.8412 6.19531C45.0825 6.66927 46.1997 7.40278 47.1927 8.39583L59.3125 20.5156C60.3056 21.5087 61.0504 22.6372 61.5469 23.901C62.0434 25.1649 62.2917 26.4514 62.2917 27.7604C62.2917 29.0694 62.0434 30.3446 61.5469 31.5859C61.0504 32.8273 60.3056 33.9444 59.3125 34.9375L36.4948 57.7552C35.908 58.342 35.2422 58.7934 34.4974 59.1094C33.7526 59.4254 32.974 59.5833 32.1615 59.5833Z" fill="#BFBC37"/>
</svg>
