<svg width="65" height="65" viewBox="0 0 65 65" fill="none" xmlns="http://www.w3.org/2000/svg">
<path d="M32.7708 48.2761C33.493 48.2761 34.1024 48.0279 34.5989 47.5313C35.0954 47.0348 35.3437 46.4254 35.3437 45.7032C35.3437 44.981 35.0954 44.3716 34.5989 43.8751C34.1024 43.3786 33.493 43.1303 32.7708 43.1303C32.0486 43.1303 31.4392 43.3786 30.9427 43.8751C30.4461 44.3716 30.1979 44.981 30.1979 45.7032C30.1979 46.4254 30.4461 47.0348 30.9427 47.5313C31.4392 48.0279 32.0486 48.2761 32.7708 48.2761ZM30.401 38.3907H34.3958C34.3958 37.2171 34.5425 36.145 34.8359 35.1746C35.1293 34.2041 36.0434 33.0869 37.5781 31.823C38.9774 30.6494 39.9704 29.4983 40.5572 28.3699C41.1441 27.2414 41.4375 26.0001 41.4375 24.6459C41.4375 22.2536 40.6588 20.3351 39.1015 18.8907C37.5442 17.4463 35.4791 16.724 32.9062 16.724C30.6944 16.724 28.7421 17.277 27.0494 18.3829C25.3567 19.4888 24.1267 21.0122 23.3593 22.9532L26.9479 24.3074C27.4444 23.0435 28.1892 22.0617 29.1822 21.3621C30.1753 20.6624 31.3489 20.3126 32.7031 20.3126C34.2378 20.3126 35.4791 20.7301 36.427 21.5652C37.375 22.4003 37.8489 23.4723 37.8489 24.7813C37.8489 25.7744 37.5555 26.711 36.9687 27.5912C36.3819 28.4714 35.5243 29.3855 34.3958 30.3334C33.0416 31.507 32.0373 32.6694 31.3828 33.8204C30.7283 34.9714 30.401 36.4949 30.401 38.3907ZM32.5 59.5834C28.7986 59.5834 25.3003 58.8725 22.0052 57.4506C18.71 56.0287 15.8324 54.0878 13.3724 51.6277C10.9123 49.1676 8.97131 46.29 7.54944 42.9949C6.12756 39.6997 5.41663 36.2015 5.41663 32.5001C5.41663 28.7536 6.12756 25.2327 7.54944 21.9376C8.97131 18.6424 10.9123 15.7761 13.3724 13.3386C15.8324 10.9011 18.71 8.97144 22.0052 7.54956C25.3003 6.12769 28.7986 5.41675 32.5 5.41675C36.2465 5.41675 39.7673 6.12769 43.0625 7.54956C46.3576 8.97144 49.2239 10.9011 51.6614 13.3386C54.0989 15.7761 56.0286 18.6424 57.4505 21.9376C58.8723 25.2327 59.5833 28.7536 59.5833 32.5001C59.5833 36.2015 58.8723 39.6997 57.4505 42.9949C56.0286 46.29 54.0989 49.1676 51.6614 51.6277C49.2239 54.0878 46.3576 56.0287 43.0625 57.4506C39.7673 58.8725 36.2465 59.5834 32.5 59.5834ZM32.5 55.5209C38.9097 55.5209 44.3489 53.2753 48.8177 48.7839C53.2864 44.2926 55.5208 38.8647 55.5208 32.5001C55.5208 26.0904 53.2864 20.6511 48.8177 16.1824C44.3489 11.7136 38.9097 9.47925 32.5 9.47925C26.1354 9.47925 20.7074 11.7136 16.2161 16.1824C11.7248 20.6511 9.47913 26.0904 9.47913 32.5001C9.47913 38.8647 11.7248 44.2926 16.2161 48.7839C20.7074 53.2753 26.1354 55.5209 32.5 55.5209Z" fill="#BFBC37"/>
</svg>
