<svg width="50" height="51" viewBox="0 0 50 51" fill="none" xmlns="http://www.w3.org/2000/svg">
<path d="M15.1945 41.9438V19.4337H7.7125V41.9438H15.1953H15.1945ZM11.4551 16.3608C14.0637 16.3608 15.6877 14.6323 15.6877 12.4722C15.6389 10.2628 14.0637 8.58252 11.5047 8.58252C8.94395 8.58252 7.27148 10.2628 7.27148 12.472C7.27148 14.6321 8.89492 16.3606 11.4061 16.3606H11.4545L11.4551 16.3608ZM19.3359 41.9438H26.8174V29.3745C26.8174 28.7026 26.8662 28.029 27.0639 27.5491C27.6045 26.2044 28.8355 24.8124 30.9029 24.8124C33.6096 24.8124 34.693 26.8765 34.693 29.9028V41.9438H42.1742V29.0372C42.1742 22.1233 38.4836 18.906 33.5611 18.906C29.5254 18.906 27.7529 21.1616 26.7682 22.6979H26.818V19.4345H19.3363C19.434 21.5462 19.3357 41.9446 19.3357 41.9446L19.3359 41.9438Z" fill="white"/>
</svg>
