<svg width="50" height="51" viewBox="0 0 50 51" fill="none" xmlns="http://www.w3.org/2000/svg">
<path d="M25.8853 38.7962L17.6894 38.6463C15.0358 38.594 12.3756 38.6983 9.77398 38.1572C5.81636 37.3487 5.53598 33.3844 5.2426 30.0592C4.83835 25.3843 4.99485 20.6246 5.75772 15.9888C6.18838 13.3876 7.88322 11.8354 10.5042 11.6665C19.3521 11.0535 28.2587 11.1262 37.0869 11.4122C38.0193 11.4384 38.9581 11.5817 39.8775 11.7448C44.4156 12.5403 44.5263 17.0326 44.8205 20.8143C45.1139 24.6351 44.99 28.4754 44.4292 32.2702C43.9794 35.4121 43.1186 38.0469 39.4862 38.3013C34.935 38.6339 30.4883 38.9016 25.9243 38.8164C25.9245 38.7962 25.8983 38.7962 25.8853 38.7962ZM21.0669 30.8417C24.4966 28.8725 27.8609 26.9361 31.271 24.9801C27.8349 23.0109 24.477 21.0745 21.0669 19.1185V30.8417Z" fill="white"/>
</svg>
